#N canvas 868 238 1155 716 10;
#X obj 29 52 inlet;
#X obj 144 65 inlet;
#X obj 248 65 inlet;
#X obj 360 63 inlet;
#X obj 426 63 inlet;
#X text 431 46 Res.;
#X obj 267 199 blosc~ saw;
#X obj 253 152 mtof;
#X obj 389 118 moog~;
#X obj 116 129 t b f;
#X obj 113 170 +;
#X obj 167 128 * 60;
#X text 94 169 A;
#X obj 106 221 t b f;
#X obj 95 268 /;
#X obj 89 316 log;
#X obj 94 438 line~;
#X msg 87 403 0;
#X obj 130 366 t b b;
#X obj 87 344 pack f f;
#X obj 240 106 * 1000;
#X obj 94 480 exp~;
#X obj 96 517 *~;
#X obj 320 108 * 12;
#X obj 122 560 +~;
#X obj 121 599 mtof~;
#X obj 118 644 clip~ 20 20000;
#X obj 75 87 t f f f;
#X obj 395 405 outlet~;
#X obj 478 71 inlet;
#X text 482 49 Bang;
#X obj 564 70 inlet;
#X text 565 52 Echo (entre 0 et 1);
#X obj 560 128 expr if($f1<0.5 \, 1 \, 2-2*$f1);
#X obj 529 391 outlet~;
#X obj 404 198 *~;
#X obj 811 73 inlet;
#X text 807 55 Tempo;
#X obj 809 117 expr 60000/$f1;
#X obj 509 195 *~;
#X obj 643 504 +~;
#X obj 956 71 inlet;
#X obj 698 458 *~;
#X obj 400 249 delwrite~ delaiGauche\$0 1000;
#X obj 401 296 delread~ delaiGauche\$0 2;
#X obj 867 354 delread~ delaiDroitBis\$0 2;
#X obj 670 410 vd~ delaiDroit\$0;
#X obj 804 487 delwrite~ delaiDroitBis\$0 1000;
#X obj 647 542 delwrite~ delaiDroit\$0 1000;
#X text 25 0 This patch produces moog sound similar as Aphex Twin sound
or equivalent.;
#X text 920 48 Repeats entre 0 et 1;
#X text 0 37 Pitch (in MIDI notation);
#X text 117 23 Velocity (between 0 and 1);
#X text 210 43 Dur. (between 0 and 4);
#X text 345 18 Filt. (between 0 and 1);
#X connect 0 0 27 0;
#X connect 1 0 11 0;
#X connect 2 0 20 0;
#X connect 3 0 23 0;
#X connect 4 0 8 2;
#X connect 6 0 8 0;
#X connect 7 0 6 0;
#X connect 8 0 35 0;
#X connect 9 0 10 0;
#X connect 9 1 10 1;
#X connect 10 0 13 0;
#X connect 10 0 22 1;
#X connect 11 0 10 0;
#X connect 13 0 14 0;
#X connect 13 1 14 1;
#X connect 14 0 15 0;
#X connect 15 0 19 0;
#X connect 16 0 21 0;
#X connect 17 0 16 0;
#X connect 18 0 19 0;
#X connect 18 1 17 0;
#X connect 19 0 16 0;
#X connect 20 0 19 1;
#X connect 21 0 22 0;
#X connect 22 0 24 0;
#X connect 23 0 24 1;
#X connect 24 0 25 0;
#X connect 25 0 26 0;
#X connect 26 0 8 1;
#X connect 27 0 7 0;
#X connect 27 1 9 0;
#X connect 27 2 14 0;
#X connect 29 0 18 0;
#X connect 31 0 33 0;
#X connect 31 0 39 1;
#X connect 33 0 35 1;
#X connect 35 0 34 0;
#X connect 35 0 39 0;
#X connect 35 0 43 0;
#X connect 36 0 38 0;
#X connect 38 0 46 0;
#X connect 39 0 40 0;
#X connect 40 0 48 0;
#X connect 41 0 42 1;
#X connect 42 0 40 1;
#X connect 44 0 28 0;
#X connect 45 0 34 0;
#X connect 46 0 42 0;
#X connect 46 0 28 0;
#X connect 46 0 47 0;
