#N canvas 739 239 450 300 10;
#X obj 142 191 moogsound;
#X msg 77 128 0.5;
#X msg 116 127 2;
#X msg 152 110 0.5;
#X msg 239 105 0.5;
#X msg 255 172 0.5;
#X floatatom 189 92 5 0 0 0 - - -;
#X floatatom 224 49 5 0 0 0 - - -;
#X floatatom 257 133 5 0 0 0 - - -;
#X obj 116 24 inlet;
#X obj 144 240 outlet~;
#X obj 118 75 bng 15 250 50 0 empty empty empty 17 7 0 10 -262144 -1
-1;
#X floatatom 24 72 5 0 0 0 - - -;
#X connect 0 0 10 0;
#X connect 1 0 0 1;
#X connect 2 0 0 2;
#X connect 3 0 0 3;
#X connect 4 0 0 6;
#X connect 5 0 0 8;
#X connect 6 0 0 4;
#X connect 7 0 0 5;
#X connect 8 0 0 7;
#X connect 9 0 7 0;
#X connect 9 0 11 0;
#X connect 9 0 0 0;
#X connect 9 0 12 0;
#X connect 11 0 1 0;
#X connect 11 0 2 0;
#X connect 11 0 3 0;
#X connect 11 0 4 0;
#X connect 11 0 5 0;
