#N canvas 521 23 758 751 10;
#X obj 134 43 dumpOSC 12001;
#X obj 276 100 print "received_something_else";
#X text 262 17 dunoOSC listens for incoming messages in PD;
#X obj 132 75 OSCroute /sound;
#X obj 161 452 guitar;
#X obj 314 434 moog;
#X obj 559 441 piano;
#X obj 397 580 dac~;
#X obj 159 498 *~;
#X obj 359 490 *~;
#X obj 563 498 *~;
#X obj 501 156 print vibr;
#X obj 519 362 mtof;
#X obj 113 386 vibratoSelector;
#X obj 117 111 unpack f f f f f f;
#X obj 40 232 print;
#X obj 304 317 vibratoSelector;
#X obj 515 318 vibratoSelector;
#X connect 0 0 3 0;
#X connect 3 0 14 0;
#X connect 3 1 1 0;
#X connect 4 0 8 0;
#X connect 5 0 9 0;
#X connect 6 0 10 0;
#X connect 8 0 7 1;
#X connect 8 0 7 0;
#X connect 9 0 7 0;
#X connect 9 0 7 1;
#X connect 10 0 7 0;
#X connect 10 0 7 1;
#X connect 12 0 6 0;
#X connect 13 0 4 0;
#X connect 14 0 13 0;
#X connect 14 0 16 0;
#X connect 14 0 17 0;
#X connect 14 1 13 1;
#X connect 14 1 15 0;
#X connect 14 1 16 1;
#X connect 14 1 17 1;
#X connect 14 2 13 2;
#X connect 14 2 16 2;
#X connect 14 2 17 2;
#X connect 14 3 13 3;
#X connect 14 3 8 1;
#X connect 14 4 9 1;
#X connect 14 4 11 0;
#X connect 14 4 16 3;
#X connect 14 5 10 1;
#X connect 14 5 17 3;
#X connect 16 0 5 0;
#X connect 17 0 12 0;
