#N canvas 142 34 1280 655 10;
#X obj 91 319 vline~;
#X obj 91 353 *~;
#X obj 152 516 *~;
#X msg 91 290 0 0 \, 1 10 0 \, 0 800 10;
#X obj 273 198 tabread4~;
#X obj 273 157 vline~;
#X obj 241 224 sig~;
#X obj 260 327 *~;
#X obj 242 354 +~;
#X obj 260 261 *~;
#X obj 152 540 *~ 0.5;
#X obj 234 101 t b f b;
#X msg 273 134 0 0 \, 600 400;
#X obj 259 293 osc~;
#X obj 243 404 osc~;
#X obj 295 299 *~ 0.9;
#X obj 273 223 *~ 7;
#X obj 180 6 inlet;
#X obj 140 568 outlet~;
#X floatatom 281 46 5 0 0 0 - - -;
#X connect 0 0 1 0;
#X connect 0 0 1 1;
#X connect 1 0 2 0;
#X connect 2 0 10 0;
#X connect 3 0 0 0;
#X connect 4 0 16 0;
#X connect 5 0 4 0;
#X connect 6 0 8 0;
#X connect 6 0 9 0;
#X connect 7 0 8 1;
#X connect 8 0 14 0;
#X connect 9 0 13 0;
#X connect 9 0 15 0;
#X connect 10 0 18 0;
#X connect 11 0 3 0;
#X connect 11 1 6 0;
#X connect 11 2 12 0;
#X connect 12 0 5 0;
#X connect 13 0 7 0;
#X connect 14 0 2 1;
#X connect 15 0 7 1;
#X connect 16 0 9 1;
#X connect 17 0 11 0;
