#N canvas 679 90 519 543 10;
#X obj 75 56 inlet;
#X obj 155 55 inlet;
#X obj 310 48 inlet;
#X obj 167 378 outlet;
#X obj 215 108 *;
#X obj 216 149 vibrato;
#X obj 153 252 switch;
#X obj 164 185 + 1;
#X floatatom 45 126 5 0 0 0 - - -;
#X floatatom 35 228 5 0 0 0 - - -;
#X floatatom 85 313 5 0 0 0 - - -;
#X floatatom 382 169 5 0 0 0 - - -;
#X floatatom 328 100 5 0 0 0 - - -;
#X obj 200 290 > 20;
#X text 233 291 Filter Low Frequencies;
#X obj 178 334 *;
#X obj 221 58 inlet;
#X obj 98 186 *;
#X connect 0 0 5 1;
#X connect 0 0 8 0;
#X connect 0 0 17 0;
#X connect 1 0 4 0;
#X connect 1 0 7 0;
#X connect 2 0 4 1;
#X connect 2 0 12 0;
#X connect 2 0 17 1;
#X connect 4 0 5 0;
#X connect 4 0 11 0;
#X connect 5 0 6 2;
#X connect 6 0 10 0;
#X connect 6 0 13 0;
#X connect 6 0 15 0;
#X connect 7 0 6 0;
#X connect 13 0 15 1;
#X connect 15 0 3 0;
#X connect 16 0 5 2;
#X connect 17 0 6 1;
#X connect 17 0 9 0;
