#N canvas 726 23 549 641 10;
#X obj 150 493 float;
#X obj 151 182 float;
#X obj 225 179 + 1;
#X obj 153 217 % 2;
#X obj 42 62 inlet;
#X obj 150 532 outlet;
#X obj 122 59 inlet;
#X obj 409 179 pow;
#X obj 438 140 / 12;
#X msg 435 83 1;
#X msg 382 126 2;
#X floatatom 356 339 5 0 0 0 - - -;
#X obj 71 387 float;
#X obj 274 373 float;
#X obj 168 268 sel 0 1;
#X obj 386 297 + 0.25;
#X obj 216 63 inlet;
#X obj 132 123 metro;
#X floatatom 239 111 5 0 0 0 - - -;
#X connect 0 0 5 0;
#X connect 1 0 2 0;
#X connect 1 0 3 0;
#X connect 2 0 1 1;
#X connect 3 0 14 0;
#X connect 4 0 17 0;
#X connect 6 0 12 1;
#X connect 6 0 15 0;
#X connect 8 0 7 1;
#X connect 9 0 8 0;
#X connect 10 0 7 0;
#X connect 11 0 13 1;
#X connect 12 0 0 0;
#X connect 13 0 0 0;
#X connect 14 0 12 0;
#X connect 14 1 13 0;
#X connect 15 0 11 0;
#X connect 16 0 17 1;
#X connect 16 0 18 0;
#X connect 17 0 1 0;
